<mxfile host="app.diagrams.net" agent="Mozilla/5.0 (Windows NT 10.0; Win64; x64) AppleWebKit/537.36 (KHTML, like Gecko) Chrome/138.0.0.0 Safari/537.36" version="28.0.7">
  <diagram name="Page-1" id="AGSKsreDSlLz5hZn4wA5">
    <mxGraphModel dx="1246" dy="676" grid="1" gridSize="10" guides="1" tooltips="1" connect="1" arrows="1" fold="1" page="1" pageScale="1" pageWidth="850" pageHeight="1100" math="0" shadow="0">
      <root>
        <mxCell id="0" />
        <mxCell id="1" parent="0" />
        <mxCell id="nh3qLlso6irezQ9DI_YX-3" value="&lt;font style=&quot;font-size: 20px;&quot;&gt;start&lt;/font&gt;" style="ellipse;whiteSpace=wrap;html=1;" vertex="1" parent="1">
          <mxGeometry x="350.5" y="50" width="150" height="50" as="geometry" />
        </mxCell>
        <mxCell id="nh3qLlso6irezQ9DI_YX-4" value="" style="endArrow=classic;html=1;rounded=0;exitX=0.46;exitY=1.052;exitDx=0;exitDy=0;exitPerimeter=0;" edge="1" parent="1">
          <mxGeometry width="50" height="50" relative="1" as="geometry">
            <mxPoint x="425" y="102.59999999999997" as="sourcePoint" />
            <mxPoint x="426" y="150" as="targetPoint" />
          </mxGeometry>
        </mxCell>
        <mxCell id="nh3qLlso6irezQ9DI_YX-5" value="&lt;font style=&quot;font-size: 20px;&quot;&gt;Login&lt;/font&gt;" style="rounded=0;whiteSpace=wrap;html=1;" vertex="1" parent="1">
          <mxGeometry x="365" y="150" width="120" height="50" as="geometry" />
        </mxCell>
        <mxCell id="nh3qLlso6irezQ9DI_YX-6" value="&lt;font&gt;Check Role&lt;/font&gt;" style="rhombus;whiteSpace=wrap;html=1;fontSize=12;" vertex="1" parent="1">
          <mxGeometry x="372" y="230" width="107" height="80" as="geometry" />
        </mxCell>
        <mxCell id="nh3qLlso6irezQ9DI_YX-7" value="" style="endArrow=classic;html=1;rounded=0;entryX=0.5;entryY=0;entryDx=0;entryDy=0;exitX=0.5;exitY=1;exitDx=0;exitDy=0;" edge="1" parent="1" source="nh3qLlso6irezQ9DI_YX-5" target="nh3qLlso6irezQ9DI_YX-6">
          <mxGeometry width="50" height="50" relative="1" as="geometry">
            <mxPoint x="420" y="200" as="sourcePoint" />
            <mxPoint x="470" y="150" as="targetPoint" />
          </mxGeometry>
        </mxCell>
        <mxCell id="nh3qLlso6irezQ9DI_YX-8" value="" style="endArrow=none;html=1;rounded=0;" edge="1" parent="1">
          <mxGeometry width="50" height="50" relative="1" as="geometry">
            <mxPoint x="260" y="270" as="sourcePoint" />
            <mxPoint x="372" y="270" as="targetPoint" />
          </mxGeometry>
        </mxCell>
        <mxCell id="nh3qLlso6irezQ9DI_YX-11" value="" style="endArrow=classic;html=1;rounded=0;" edge="1" parent="1">
          <mxGeometry width="50" height="50" relative="1" as="geometry">
            <mxPoint x="260" y="270" as="sourcePoint" />
            <mxPoint x="260" y="330" as="targetPoint" />
          </mxGeometry>
        </mxCell>
        <mxCell id="nh3qLlso6irezQ9DI_YX-13" value="&lt;font style=&quot;font-size: 13px;&quot;&gt;Dashboard Admin&lt;/font&gt;" style="rounded=0;whiteSpace=wrap;html=1;fontSize=12;" vertex="1" parent="1">
          <mxGeometry x="200" y="330" width="120" height="50" as="geometry" />
        </mxCell>
        <mxCell id="nh3qLlso6irezQ9DI_YX-14" value="" style="endArrow=none;html=1;rounded=0;" edge="1" parent="1">
          <mxGeometry width="50" height="50" relative="1" as="geometry">
            <mxPoint x="479" y="269.58" as="sourcePoint" />
            <mxPoint x="590" y="270" as="targetPoint" />
          </mxGeometry>
        </mxCell>
        <mxCell id="nh3qLlso6irezQ9DI_YX-16" value="" style="endArrow=classic;html=1;rounded=0;" edge="1" parent="1">
          <mxGeometry width="50" height="50" relative="1" as="geometry">
            <mxPoint x="590" y="270" as="sourcePoint" />
            <mxPoint x="590" y="330" as="targetPoint" />
          </mxGeometry>
        </mxCell>
        <mxCell id="nh3qLlso6irezQ9DI_YX-17" value="&lt;font style=&quot;font-size: 13px;&quot;&gt;Dashboard Siswa&lt;/font&gt;" style="rounded=0;whiteSpace=wrap;html=1;fontSize=12;" vertex="1" parent="1">
          <mxGeometry x="530" y="330" width="120" height="50" as="geometry" />
        </mxCell>
        <mxCell id="nh3qLlso6irezQ9DI_YX-18" value="If Admin" style="text;html=1;align=center;verticalAlign=middle;whiteSpace=wrap;rounded=0;fontSize=13;" vertex="1" parent="1">
          <mxGeometry x="500" y="250" width="60" height="20" as="geometry" />
        </mxCell>
        <mxCell id="nh3qLlso6irezQ9DI_YX-19" value="" style="endArrow=classic;html=1;rounded=0;" edge="1" parent="1">
          <mxGeometry width="50" height="50" relative="1" as="geometry">
            <mxPoint x="589.58" y="380" as="sourcePoint" />
            <mxPoint x="589.58" y="410" as="targetPoint" />
          </mxGeometry>
        </mxCell>
        <mxCell id="nh3qLlso6irezQ9DI_YX-21" value="&lt;font style=&quot;font-size: 13px;&quot;&gt;Lihat Absensi&lt;/font&gt;" style="rounded=0;whiteSpace=wrap;html=1;fontSize=12;" vertex="1" parent="1">
          <mxGeometry x="530" y="410" width="120" height="50" as="geometry" />
        </mxCell>
        <mxCell id="nh3qLlso6irezQ9DI_YX-22" value="" style="endArrow=classic;html=1;rounded=0;" edge="1" parent="1">
          <mxGeometry width="50" height="50" relative="1" as="geometry">
            <mxPoint x="589.58" y="460" as="sourcePoint" />
            <mxPoint x="589.58" y="490" as="targetPoint" />
          </mxGeometry>
        </mxCell>
        <mxCell id="nh3qLlso6irezQ9DI_YX-23" value="&lt;font style=&quot;font-size: 13px;&quot;&gt;Ajukan izin sakit&lt;/font&gt;" style="rounded=0;whiteSpace=wrap;html=1;fontSize=12;" vertex="1" parent="1">
          <mxGeometry x="530" y="490" width="120" height="50" as="geometry" />
        </mxCell>
        <mxCell id="nh3qLlso6irezQ9DI_YX-26" value="" style="endArrow=classic;html=1;rounded=0;" edge="1" parent="1">
          <mxGeometry width="50" height="50" relative="1" as="geometry">
            <mxPoint x="589.58" y="540" as="sourcePoint" />
            <mxPoint x="589.58" y="570" as="targetPoint" />
          </mxGeometry>
        </mxCell>
        <mxCell id="nh3qLlso6irezQ9DI_YX-27" value="&lt;span style=&quot;font-size: 13px;&quot;&gt;Upload Surat/Penjelasan&lt;/span&gt;" style="rounded=0;whiteSpace=wrap;html=1;fontSize=12;" vertex="1" parent="1">
          <mxGeometry x="530" y="570" width="120" height="50" as="geometry" />
        </mxCell>
        <mxCell id="nh3qLlso6irezQ9DI_YX-28" value="" style="endArrow=classic;html=1;rounded=0;" edge="1" parent="1">
          <mxGeometry width="50" height="50" relative="1" as="geometry">
            <mxPoint x="259.58000000000004" y="380" as="sourcePoint" />
            <mxPoint x="259.92" y="430" as="targetPoint" />
          </mxGeometry>
        </mxCell>
        <mxCell id="nh3qLlso6irezQ9DI_YX-30" value="" style="endArrow=none;html=1;rounded=0;" edge="1" parent="1">
          <mxGeometry width="50" height="50" relative="1" as="geometry">
            <mxPoint x="180" y="400" as="sourcePoint" />
            <mxPoint x="340" y="400" as="targetPoint" />
          </mxGeometry>
        </mxCell>
        <mxCell id="nh3qLlso6irezQ9DI_YX-31" value="&lt;font style=&quot;font-size: 13px;&quot;&gt;Kelola Siswa&lt;/font&gt;" style="rounded=0;whiteSpace=wrap;html=1;fontSize=12;" vertex="1" parent="1">
          <mxGeometry x="227.5" y="430" width="65" height="40" as="geometry" />
        </mxCell>
        <mxCell id="nh3qLlso6irezQ9DI_YX-32" value="" style="endArrow=classic;html=1;rounded=0;" edge="1" parent="1">
          <mxGeometry width="50" height="50" relative="1" as="geometry">
            <mxPoint x="180" y="400" as="sourcePoint" />
            <mxPoint x="180" y="430" as="targetPoint" />
          </mxGeometry>
        </mxCell>
        <mxCell id="nh3qLlso6irezQ9DI_YX-33" value="&lt;font style=&quot;font-size: 13px;&quot;&gt;Kelola Siswa&lt;/font&gt;" style="rounded=0;whiteSpace=wrap;html=1;fontSize=12;" vertex="1" parent="1">
          <mxGeometry x="150" y="430" width="65" height="40" as="geometry" />
        </mxCell>
        <mxCell id="nh3qLlso6irezQ9DI_YX-34" value="&lt;font style=&quot;font-size: 13px;&quot;&gt;Rekap Absensi&lt;/font&gt;" style="rounded=0;whiteSpace=wrap;html=1;fontSize=12;" vertex="1" parent="1">
          <mxGeometry x="307" y="430" width="65" height="40" as="geometry" />
        </mxCell>
        <mxCell id="nh3qLlso6irezQ9DI_YX-35" value="" style="endArrow=classic;html=1;rounded=0;" edge="1" parent="1">
          <mxGeometry width="50" height="50" relative="1" as="geometry">
            <mxPoint x="340" y="400" as="sourcePoint" />
            <mxPoint x="340" y="430" as="targetPoint" />
          </mxGeometry>
        </mxCell>
        <mxCell id="nh3qLlso6irezQ9DI_YX-36" value="" style="endArrow=none;html=1;rounded=0;" edge="1" parent="1">
          <mxGeometry width="50" height="50" relative="1" as="geometry">
            <mxPoint x="180" y="510" as="sourcePoint" />
            <mxPoint x="180" y="470" as="targetPoint" />
          </mxGeometry>
        </mxCell>
        <mxCell id="nh3qLlso6irezQ9DI_YX-37" value="" style="endArrow=none;html=1;rounded=0;" edge="1" parent="1">
          <mxGeometry width="50" height="50" relative="1" as="geometry">
            <mxPoint x="339.08" y="510" as="sourcePoint" />
            <mxPoint x="339.08" y="470" as="targetPoint" />
          </mxGeometry>
        </mxCell>
        <mxCell id="nh3qLlso6irezQ9DI_YX-38" value="" style="endArrow=none;html=1;rounded=0;" edge="1" parent="1">
          <mxGeometry width="50" height="50" relative="1" as="geometry">
            <mxPoint x="180" y="510" as="sourcePoint" />
            <mxPoint x="340" y="510" as="targetPoint" />
          </mxGeometry>
        </mxCell>
        <mxCell id="nh3qLlso6irezQ9DI_YX-39" value="" style="endArrow=classic;html=1;rounded=0;" edge="1" parent="1">
          <mxGeometry width="50" height="50" relative="1" as="geometry">
            <mxPoint x="259.58" y="470" as="sourcePoint" />
            <mxPoint x="260" y="530" as="targetPoint" />
          </mxGeometry>
        </mxCell>
        <mxCell id="nh3qLlso6irezQ9DI_YX-40" value="&lt;font style=&quot;font-size: 13px;&quot;&gt;Logout&lt;/font&gt;" style="rounded=0;whiteSpace=wrap;html=1;fontSize=12;" vertex="1" parent="1">
          <mxGeometry x="200" y="530" width="120" height="40" as="geometry" />
        </mxCell>
        <mxCell id="nh3qLlso6irezQ9DI_YX-41" value="" style="endArrow=classic;html=1;rounded=0;" edge="1" parent="1">
          <mxGeometry width="50" height="50" relative="1" as="geometry">
            <mxPoint x="259.58" y="570" as="sourcePoint" />
            <mxPoint x="259.58" y="600" as="targetPoint" />
          </mxGeometry>
        </mxCell>
        <mxCell id="nh3qLlso6irezQ9DI_YX-42" value="&lt;font style=&quot;font-size: 13px;&quot;&gt;End&lt;/font&gt;" style="rounded=0;whiteSpace=wrap;html=1;fontSize=12;" vertex="1" parent="1">
          <mxGeometry x="200" y="600" width="120" height="40" as="geometry" />
        </mxCell>
        <mxCell id="nh3qLlso6irezQ9DI_YX-43" value="" style="endArrow=classic;html=1;rounded=0;" edge="1" parent="1">
          <mxGeometry width="50" height="50" relative="1" as="geometry">
            <mxPoint x="589.58" y="620" as="sourcePoint" />
            <mxPoint x="589.58" y="650" as="targetPoint" />
          </mxGeometry>
        </mxCell>
        <mxCell id="nh3qLlso6irezQ9DI_YX-44" value="&lt;font style=&quot;font-size: 13px;&quot;&gt;End&lt;/font&gt;" style="rounded=0;whiteSpace=wrap;html=1;fontSize=12;" vertex="1" parent="1">
          <mxGeometry x="530" y="650" width="120" height="50" as="geometry" />
        </mxCell>
      </root>
    </mxGraphModel>
  </diagram>
</mxfile>
